<svg xmlns="http://www.w3.org/2000/svg" xmlns:xlink="http://www.w3.org/1999/xlink" version="1.1" x="0px" y="0px" viewBox="0 0 492 615" style="enable-background:new 0 0 492 492;" xml:space="preserve"><style type="text/css">
	.st0{fill-rule:evenodd;clip-rule:evenodd;}
</style><g><g><g><g><g><path class="st0" d="M424.8,390.3h-49.5c-1.6,0-3-0.6-4-1.6l-17.1-15.8l-14,15.5c-0.1,0.1-0.1,0.1-0.2,0.2       c-1.1,1.1-2.5,1.7-4.1,1.7l-243.1,0c-17,0-30.9-13.9-30.9-30.9V128.1c0-13.7,11.1-24.9,24.9-24.9c6.6,0,12.9,2.6,17.6,7.3       c4.7,4.7,7.3,10.9,7.3,17.6v6.7h50.7c1.8,0,3.5,0.9,4.5,2.2l9,10.8l5.2-9.8c0.9-1.9,2.9-3.2,5.1-3.2h238.6       c3.2,0,5.8,2.6,5.8,5.8v244C430.6,387.7,428,390.3,424.8,390.3L424.8,390.3z M377.6,378.7h41.5V146.2H189.7l-7.7,14.4       c-0.9,1.7-2.6,2.8-4.5,3c-1.9,0.2-3.8-0.6-5-2l-12.9-15.4h-48v195.1c0,2-1,3.8-2.7,4.9c-1.7,1.1-3.8,1.2-5.6,0.3       c-8.4-4.1-15.2-4.8-20.2-2.2c-7.1,3.7-9.3,13.4-9.8,15.5c0.3,10.5,8.8,18.9,19.4,18.9l240.5,0l16.2-18c1-1.1,2.5-1.8,4-1.9       c1.5-0.1,3,0.5,4.2,1.5L377.6,378.7L377.6,378.7z M86.8,114.7c-7.4,0-13.3,6-13.3,13.3v209.1c1.3-1.1,2.7-2.1,4.3-2.9       c6.4-3.4,13.9-3.8,22.3-1.3V128.1c0-3.6-1.4-6.9-3.9-9.4C93.7,116.1,90.4,114.7,86.8,114.7z"/></g></g><g><g><path class="st0" d="M343.4,335.6h-25c-1.9,0-3.6-0.9-4.7-2.4s-1.4-3.4-0.8-5.2l12.1-35.8c0.8-2.3,3-3.9,5.4-3.9c0,0,0,0,0.1,0       c2.4,0,4.6,1.5,5.4,3.8l12.9,35.8c0.6,1.8,0.4,3.7-0.7,5.3C347,334.7,345.2,335.6,343.4,335.6L343.4,335.6z M326.4,324h8.7       l-4.5-12.5L326.4,324z"/></g><g><path class="st0" d="M331.1,357.9c-3.2,0-5.8-2.6-5.8-5.8v-22.4c0-3.2,2.6-5.8,5.8-5.8c3.2,0,5.8,2.6,5.8,5.8v22.4       C336.8,355.3,334.3,357.9,331.1,357.9z"/></g></g><g><g><path class="st0" d="M388.7,318.9h-29c-1.9,0-3.6-0.9-4.7-2.4s-1.4-3.5-0.8-5.2l14.1-41.3c0.8-2.3,3-3.9,5.4-3.9c0,0,0,0,0,0       c2.4,0,4.6,1.5,5.4,3.8l14.9,41.3c0.6,1.8,0.4,3.7-0.7,5.3C392.4,318,390.6,318.9,388.7,318.9L388.7,318.9z M367.8,307.4h12.7       l-6.5-18.2L367.8,307.4z"/></g><g><path class="st0" d="M374.6,344.7c-3.2,0-5.8-2.6-5.8-5.8v-25.8c0-3.2,2.6-5.8,5.8-5.8s5.8,2.6,5.8,5.8V339       C380.3,342.2,377.7,344.7,374.6,344.7z"/></g></g><g><g><path class="st0" d="M358.6,211.2c-1.5,0-2.9-0.6-4.1-1.7c-2.2-2.2-2.2-5.9,0-8.1l31.8-31.8c2.2-2.2,5.9-2.2,8.1,0       c2.2,2.2,2.2,5.9,0,8.1l-31.8,31.8C361.6,210.6,360.1,211.2,358.6,211.2z"/></g><g><path class="st0" d="M390.5,211.2c-1.5,0-2.9-0.6-4.1-1.7l-31.8-31.8c-2.2-2.2-2.2-5.9,0-8.1c2.2-2.2,5.9-2.2,8.1,0l31.8,31.8       c2.2,2.2,2.2,5.9,0,8.1C393.4,210.6,391.9,211.2,390.5,211.2z"/></g></g><g><path class="st0" d="M152.9,351.7c-11.8,0-21.5-9.6-21.5-21.5c0-11.8,9.6-21.5,21.5-21.5s21.5,9.6,21.5,21.5      C174.4,342.1,164.8,351.7,152.9,351.7L152.9,351.7z M152.9,320.3c-5.5,0-10,4.5-10,10s4.5,10,10,10c5.5,0,10-4.5,10-10      C162.9,324.7,158.4,320.3,152.9,320.3z"/></g><g><path class="st0" d="M257,299.8h-14c-1.3,0-2.5-0.1-3.8-0.3c-3.1-0.5-5.3-3.5-4.7-6.6s3.5-5.3,6.6-4.7c0.6,0.1,1.2,0.2,1.9,0.2      h14c3.2,0,5.8,2.6,5.8,5.8C262.8,297.2,260.2,299.8,257,299.8L257,299.8z M280.9,298.9c-2.4,0-4.6-1.5-5.4-3.9      c-1-3,0.6-6.3,3.6-7.3c3.5-1.2,5.9-4.1,6.2-7.3c0.3-3.2,3-5.5,6.2-5.3c3.2,0.3,5.5,3,5.3,6.2c-0.6,7.8-6.1,14.5-13.9,17.2      C282.2,298.8,281.6,298.9,280.9,298.9L280.9,298.9z M152.9,293.7c-3.2,0-5.8-2.6-5.8-5.8v-16.8c0-3.2,2.6-5.8,5.8-5.8      s5.8,2.6,5.8,5.8v16.8C158.7,291.1,156.1,293.7,152.9,293.7L152.9,293.7z M227.4,282.2c-3.2,0-5.8-2.6-5.8-5.8v-12.5      c0-0.8-0.1-1.6-0.4-2.4c-1-3,0.6-6.3,3.6-7.3s6.3,0.6,7.3,3.6c0.6,1.9,1,4,1,6v12.5C233.2,279.6,230.6,282.2,227.4,282.2      L227.4,282.2z M291,262.6c-3.2,0-5.8-2.6-5.8-5.8v-16.8c0-3.2,2.6-5.8,5.8-5.8s5.8,2.6,5.8,5.8v16.8      C296.8,260,294.2,262.6,291,262.6L291,262.6z M207.1,254.7c-0.5,0-1-0.1-1.6-0.2c-7.9-2.2-13.8-8.6-15-16.3      c-0.5-3.1,1.7-6.1,4.8-6.6c3.1-0.5,6.1,1.7,6.6,4.8c0.5,3.2,3.1,6,6.7,7c3.1,0.9,4.8,4.1,4,7.1      C212,253.1,209.6,254.7,207.1,254.7L207.1,254.7z M152.9,252.9c-3.2,0-5.8-2.6-5.8-5.8v-16.8c0-3.2,2.6-5.8,5.8-5.8      s5.8,2.6,5.8,5.8v16.8C158.7,250.3,156.1,252.9,152.9,252.9L152.9,252.9z M291,221.8c-3.2,0-5.8-2.6-5.8-5.8v-12.2      c0-2.2,0.4-4.3,1.1-6.4c1.1-3,4.4-4.6,7.4-3.5c3,1.1,4.5,4.4,3.5,7.4c-0.3,0.8-0.4,1.7-0.4,2.5v12.2      C296.8,219.2,294.2,221.8,291,221.8L291,221.8z M196.1,219.1c-3.2,0-5.8-2.6-5.8-5.8v-2.8c0-2.7-1.4-5.2-4-6.8      c-2.7-1.7-3.4-5.3-1.7-8c1.7-2.7,5.3-3.4,8-1.7c5.8,3.7,9.2,9.9,9.2,16.5v2.8C201.9,216.5,199.3,219.1,196.1,219.1L196.1,219.1z       M153.6,212.1c-0.6,0-1.2-0.1-1.8-0.3c-3-1-4.7-4.3-3.7-7.3c2.4-7.2,9.1-12.7,17.1-13.9c3.1-0.5,6.1,1.7,6.5,4.9      c0.5,3.1-1.7,6.1-4.9,6.5c-3.7,0.6-6.8,2.9-7.8,6.1C158.2,210.6,156,212.1,153.6,212.1L153.6,212.1z M328.5,195.3h-16.8      c-3.2,0-5.8-2.6-5.8-5.8s2.6-5.8,5.8-5.8h16.8c3.2,0,5.8,2.6,5.8,5.8S331.7,195.3,328.5,195.3z"/></g></g></g></g></svg>